<svg xmlns="http://www.w3.org/2000/svg" xmlns:xlink="http://www.w3.org/1999/xlink" width="1778" height="97" viewBox="0 0 1778 97">
  <defs>
    <path id="ee-b" d="M0,0 L0,85.0605469 L245.947815,85.0605469 C275.574687,70.8837891 290.388123,56.7070313 290.388123,42.5302734 C290.388123,28.3535156 275.574687,14.1767578 245.947815,0 L0,0 Z"/>
    <filter id="ee-a" width="105.9%" height="120%" x="-2.9%" y="-7.6%" filterUnits="objectBoundingBox">
      <feMorphology in="SourceAlpha" operator="dilate" radius="1.5" result="shadowSpreadOuter1"/>
      <feOffset dy="2" in="shadowSpreadOuter1" result="shadowOffsetOuter1"/>
      <feGaussianBlur in="shadowOffsetOuter1" result="shadowBlurOuter1" stdDeviation="2"/>
      <feComposite in="shadowBlurOuter1" in2="SourceAlpha" operator="out" result="shadowBlurOuter1"/>
      <feColorMatrix in="shadowBlurOuter1" values="0 0 0 0 0   0 0 0 0 0   0 0 0 0 0  0 0 0 0.5 0"/>
    </filter>
    <path id="ee-d" d="M0,0 L0,85.0605469 L245.947815,85.0605469 C275.574687,70.8837891 290.388123,56.7070313 290.388123,42.5302734 C290.388123,28.3535156 275.574687,14.1767578 245.947815,0 L0,0 Z"/>
    <filter id="ee-c" width="105.9%" height="120%" x="-2.9%" y="-7.6%" filterUnits="objectBoundingBox">
      <feMorphology in="SourceAlpha" operator="dilate" radius="1.5" result="shadowSpreadOuter1"/>
      <feOffset dy="2" in="shadowSpreadOuter1" result="shadowOffsetOuter1"/>
      <feGaussianBlur in="shadowOffsetOuter1" result="shadowBlurOuter1" stdDeviation="2"/>
      <feComposite in="shadowBlurOuter1" in2="SourceAlpha" operator="out" result="shadowBlurOuter1"/>
      <feColorMatrix in="shadowBlurOuter1" values="0 0 0 0 0   0 0 0 0 0   0 0 0 0 0  0 0 0 0.5 0"/>
    </filter>
    <path id="ee-f" d="M0,0 L0,85.0605469 L245.947815,85.0605469 C275.574687,70.8837891 290.388123,56.7070313 290.388123,42.5302734 C290.388123,28.3535156 275.574687,14.1767578 245.947815,0 L0,0 Z"/>
    <filter id="ee-e" width="105.9%" height="120%" x="-2.9%" y="-7.6%" filterUnits="objectBoundingBox">
      <feMorphology in="SourceAlpha" operator="dilate" radius="1.5" result="shadowSpreadOuter1"/>
      <feOffset dy="2" in="shadowSpreadOuter1" result="shadowOffsetOuter1"/>
      <feGaussianBlur in="shadowOffsetOuter1" result="shadowBlurOuter1" stdDeviation="2"/>
      <feComposite in="shadowBlurOuter1" in2="SourceAlpha" operator="out" result="shadowBlurOuter1"/>
      <feColorMatrix in="shadowBlurOuter1" values="0 0 0 0 0   0 0 0 0 0   0 0 0 0 0  0 0 0 0.5 0"/>
    </filter>
    <path id="ee-h" d="M0,0 L0,85.0605469 L245.947815,85.0605469 C275.574687,70.8837891 290.388123,56.7070313 290.388123,42.5302734 C290.388123,28.3535156 275.574687,14.1767578 245.947815,0 L0,0 Z"/>
    <filter id="ee-g" width="105.9%" height="120%" x="-2.9%" y="-7.6%" filterUnits="objectBoundingBox">
      <feMorphology in="SourceAlpha" operator="dilate" radius="1.5" result="shadowSpreadOuter1"/>
      <feOffset dy="2" in="shadowSpreadOuter1" result="shadowOffsetOuter1"/>
      <feGaussianBlur in="shadowOffsetOuter1" result="shadowBlurOuter1" stdDeviation="2"/>
      <feComposite in="shadowBlurOuter1" in2="SourceAlpha" operator="out" result="shadowBlurOuter1"/>
      <feColorMatrix in="shadowBlurOuter1" values="0 0 0 0 0   0 0 0 0 0   0 0 0 0 0  0 0 0 0.5 0"/>
    </filter>
    <path id="ee-j" d="M0,0 L0,85.0605469 L245.947815,85.0605469 C275.574687,70.8837891 290.388123,56.7070313 290.388123,42.5302734 C290.388123,28.3535156 275.574687,14.1767578 245.947815,0 L0,0 Z"/>
    <filter id="ee-i" width="105.9%" height="120%" x="-2.9%" y="-7.6%" filterUnits="objectBoundingBox">
      <feMorphology in="SourceAlpha" operator="dilate" radius="1.5" result="shadowSpreadOuter1"/>
      <feOffset dy="2" in="shadowSpreadOuter1" result="shadowOffsetOuter1"/>
      <feGaussianBlur in="shadowOffsetOuter1" result="shadowBlurOuter1" stdDeviation="2"/>
      <feComposite in="shadowBlurOuter1" in2="SourceAlpha" operator="out" result="shadowBlurOuter1"/>
      <feColorMatrix in="shadowBlurOuter1" values="0 0 0 0 0   0 0 0 0 0   0 0 0 0 0  0 0 0 0.5 0"/>
    </filter>
    <path id="ee-l" d="M0,0 L0,85.0605469 L245.947815,85.0605469 C275.574687,70.8837891 290.388123,56.7070313 290.388123,42.5302734 C290.388123,28.3535156 275.574687,14.1767578 245.947815,0 L0,0 Z"/>
    <filter id="ee-k" width="105.9%" height="120%" x="-2.9%" y="-7.6%" filterUnits="objectBoundingBox">
      <feMorphology in="SourceAlpha" operator="dilate" radius="1.5" result="shadowSpreadOuter1"/>
      <feOffset dy="2" in="shadowSpreadOuter1" result="shadowOffsetOuter1"/>
      <feGaussianBlur in="shadowOffsetOuter1" result="shadowBlurOuter1" stdDeviation="2"/>
      <feComposite in="shadowBlurOuter1" in2="SourceAlpha" operator="out" result="shadowBlurOuter1"/>
      <feColorMatrix in="shadowBlurOuter1" values="0 0 0 0 0   0 0 0 0 0   0 0 0 0 0  0 0 0 0.5 0"/>
    </filter>
    <path id="ee-n" d="M0,0 L0,85.0605469 L245.947815,85.0605469 C275.574687,70.8837891 290.388123,56.7070313 290.388123,42.5302734 C290.388123,28.3535156 275.574687,14.1767578 245.947815,0 L0,0 Z"/>
    <filter id="ee-m" width="105.9%" height="120%" x="-2.9%" y="-7.6%" filterUnits="objectBoundingBox">
      <feMorphology in="SourceAlpha" operator="dilate" radius="1.5" result="shadowSpreadOuter1"/>
      <feOffset dy="2" in="shadowSpreadOuter1" result="shadowOffsetOuter1"/>
      <feGaussianBlur in="shadowOffsetOuter1" result="shadowBlurOuter1" stdDeviation="2"/>
      <feComposite in="shadowBlurOuter1" in2="SourceAlpha" operator="out" result="shadowBlurOuter1"/>
      <feColorMatrix in="shadowBlurOuter1" values="0 0 0 0 0   0 0 0 0 0   0 0 0 0 0  0 0 0 0.5 0"/>
    </filter>
    <path id="ee-p" d="M0,0 L0,85.0605469 L245.947815,85.0605469 C275.574687,70.8837891 290.388123,56.7070313 290.388123,42.5302734 C290.388123,28.3535156 275.574687,14.1767578 245.947815,0 L0,0 Z"/>
    <filter id="ee-o" width="105.9%" height="120%" x="-2.9%" y="-7.6%" filterUnits="objectBoundingBox">
      <feMorphology in="SourceAlpha" operator="dilate" radius="1.5" result="shadowSpreadOuter1"/>
      <feOffset dy="2" in="shadowSpreadOuter1" result="shadowOffsetOuter1"/>
      <feGaussianBlur in="shadowOffsetOuter1" result="shadowBlurOuter1" stdDeviation="2"/>
      <feComposite in="shadowBlurOuter1" in2="SourceAlpha" operator="out" result="shadowBlurOuter1"/>
      <feColorMatrix in="shadowBlurOuter1" values="0 0 0 0 0   0 0 0 0 0   0 0 0 0 0  0 0 0 0.5 0"/>
    </filter>
    <path id="ee-r" d="M0,0 L0,85.0605469 L245.947815,85.0605469 C275.574687,70.8837891 290.388123,56.7070313 290.388123,42.5302734 C290.388123,28.3535156 275.574687,14.1767578 245.947815,0 L0,0 Z"/>
    <filter id="ee-q" width="105.9%" height="120%" x="-2.9%" y="-7.6%" filterUnits="objectBoundingBox">
      <feMorphology in="SourceAlpha" operator="dilate" radius="1.5" result="shadowSpreadOuter1"/>
      <feOffset dy="2" in="shadowSpreadOuter1" result="shadowOffsetOuter1"/>
      <feGaussianBlur in="shadowOffsetOuter1" result="shadowBlurOuter1" stdDeviation="2"/>
      <feComposite in="shadowBlurOuter1" in2="SourceAlpha" operator="out" result="shadowBlurOuter1"/>
      <feColorMatrix in="shadowBlurOuter1" values="0 0 0 0 0   0 0 0 0 0   0 0 0 0 0  0 0 0 0.5 0"/>
    </filter>
    <path id="ee-t" d="M0,0 L0,85.0605469 L245.947815,85.0605469 C275.574687,70.8837891 290.388123,56.7070313 290.388123,42.5302734 C290.388123,28.3535156 275.574687,14.1767578 245.947815,0 L0,0 Z"/>
    <filter id="ee-s" width="105.9%" height="120%" x="-2.9%" y="-7.6%" filterUnits="objectBoundingBox">
      <feMorphology in="SourceAlpha" operator="dilate" radius="1.5" result="shadowSpreadOuter1"/>
      <feOffset dy="2" in="shadowSpreadOuter1" result="shadowOffsetOuter1"/>
      <feGaussianBlur in="shadowOffsetOuter1" result="shadowBlurOuter1" stdDeviation="2"/>
      <feComposite in="shadowBlurOuter1" in2="SourceAlpha" operator="out" result="shadowBlurOuter1"/>
      <feColorMatrix in="shadowBlurOuter1" values="0 0 0 0 0   0 0 0 0 0   0 0 0 0 0  0 0 0 0.5 0"/>
    </filter>
    <path id="ee-v" d="M0,0 L0,85.0605469 L245.947815,85.0605469 C275.574687,70.8837891 290.388123,56.7070313 290.388123,42.5302734 C290.388123,28.3535156 275.574687,14.1767578 245.947815,0 L0,0 Z"/>
    <filter id="ee-u" width="105.9%" height="120%" x="-2.9%" y="-7.6%" filterUnits="objectBoundingBox">
      <feMorphology in="SourceAlpha" operator="dilate" radius="1.5" result="shadowSpreadOuter1"/>
      <feOffset dy="2" in="shadowSpreadOuter1" result="shadowOffsetOuter1"/>
      <feGaussianBlur in="shadowOffsetOuter1" result="shadowBlurOuter1" stdDeviation="2"/>
      <feComposite in="shadowBlurOuter1" in2="SourceAlpha" operator="out" result="shadowBlurOuter1"/>
      <feColorMatrix in="shadowBlurOuter1" values="0 0 0 0 0   0 0 0 0 0   0 0 0 0 0  0 0 0 0.5 0"/>
    </filter>
    <path id="ee-x" d="M0,0 L0,85.0605469 L245.947815,85.0605469 C275.574687,70.8837891 290.388123,56.7070313 290.388123,42.5302734 C290.388123,28.3535156 275.574687,14.1767578 245.947815,0 L0,0 Z"/>
    <filter id="ee-w" width="105.9%" height="120%" x="-2.9%" y="-7.6%" filterUnits="objectBoundingBox">
      <feMorphology in="SourceAlpha" operator="dilate" radius="1.5" result="shadowSpreadOuter1"/>
      <feOffset dy="2" in="shadowSpreadOuter1" result="shadowOffsetOuter1"/>
      <feGaussianBlur in="shadowOffsetOuter1" result="shadowBlurOuter1" stdDeviation="2"/>
      <feComposite in="shadowBlurOuter1" in2="SourceAlpha" operator="out" result="shadowBlurOuter1"/>
      <feColorMatrix in="shadowBlurOuter1" values="0 0 0 0 0   0 0 0 0 0   0 0 0 0 0  0 0 0 0.5 0"/>
    </filter>
    <path id="ee-z" d="M0,0 L0,85.0605469 L245.947815,85.0605469 C275.574687,70.8837891 290.388123,56.7070313 290.388123,42.5302734 C290.388123,28.3535156 275.574687,14.1767578 245.947815,0 L0,0 Z"/>
    <filter id="ee-y" width="105.9%" height="120%" x="-2.9%" y="-7.6%" filterUnits="objectBoundingBox">
      <feMorphology in="SourceAlpha" operator="dilate" radius="1.5" result="shadowSpreadOuter1"/>
      <feOffset dy="2" in="shadowSpreadOuter1" result="shadowOffsetOuter1"/>
      <feGaussianBlur in="shadowOffsetOuter1" result="shadowBlurOuter1" stdDeviation="2"/>
      <feComposite in="shadowBlurOuter1" in2="SourceAlpha" operator="out" result="shadowBlurOuter1"/>
      <feColorMatrix in="shadowBlurOuter1" values="0 0 0 0 0   0 0 0 0 0   0 0 0 0 0  0 0 0 0.5 0"/>
    </filter>
  </defs>
  <g fill="none" fill-rule="evenodd">
    <g transform="translate(1482.018 3.918)">
      <use fill="#000" filter="url(#ee-a)" xlink:href="#ee-b"/>
      <use fill="#FFF" stroke="#9B9B9B" stroke-width="3" xlink:href="#ee-b"/>
      <use fill="#000" filter="url(#ee-c)" xlink:href="#ee-d"/>
      <use fill="#FFF" stroke="#9B9B9B" stroke-width="3" xlink:href="#ee-d"/>
      <path fill="#000" fill-rule="nonzero" d="M129.024201,56.6807091 C130.519245,56.6095165 131.693923,56.2179571 132.477042,55.4704348 C133.331353,54.5449309 133.93649,51.9108045 134.292453,47.4968631 L131.800712,46.7137444 C131.587134,50.6293377 131.124382,52.907501 130.412456,53.5482345 C129.878512,53.9753901 129.166586,54.1889679 128.312274,54.1889679 L110.442931,54.1889679 C108.805501,54.1889679 107.986786,53.3702529 107.986786,51.8040156 L107.986786,41.3031065 L130.341264,41.3031065 L130.341264,27.0645855 L104,27.0645855 L104,29.5563267 L127.742734,29.5563267 L127.742734,38.8469616 L107.986786,38.8469616 L107.986786,33.5787089 L105.423852,33.5787089 L105.423852,52.2667676 C105.423852,55.1856644 106.847704,56.6807091 109.731005,56.6807091 L129.024201,56.6807091 Z M169.888756,56.3959386 L169.888756,53.9041975 L153.656842,53.9041975 L153.656842,38.6689801 L166.86307,38.6689801 L166.86307,36.1772389 L153.656842,36.1772389 L153.656842,25.1779815 L151.022715,25.1779815 L151.022715,53.9041975 L138.208047,53.9041975 L138.208047,56.3959386 L169.888756,56.3959386 Z M174.872238,48.8851188 C178.289483,48.4223669 181.849113,47.5680557 185.586725,46.3577814 L185.586725,44.0440217 C183.023791,44.898333 180.460857,45.5746627 177.897924,46.073011 C179.962509,43.5456735 182.596635,39.2741172 185.72911,33.2583421 L183.450947,32.4040309 C182.739021,33.827883 182.027095,35.1805425 181.386361,36.4620093 C179.784528,36.7111835 178.182694,36.9247613 176.58086,37.0671465 C178.431868,34.2906349 180.282876,30.5886195 182.098287,25.9611002 L179.642142,25 C178.21829,29.23596 176.545264,33.009168 174.623064,36.2840278 C174.302697,36.7467798 173.946734,37.0671465 173.555175,37.2095317 L174.160312,39.5588876 C176.153705,39.3097135 178.147098,39.0605394 180.104894,38.775769 C178.253887,42.0862251 176.652053,44.4355811 175.33499,45.7882405 C175.014623,46.073011 174.623064,46.3221851 174.160312,46.5357629 L174.872238,48.8851188 Z M200.572768,30.8733899 L202.566161,29.4851341 C201.569465,28.2392635 200.181209,26.7798151 198.365797,25.0711926 L196.372404,26.3170632 C198.15222,27.9544931 199.576072,29.4851341 200.572768,30.8733899 Z M201.462676,57.5350203 C203.313683,57.5350203 204.737536,55.1500681 205.734232,50.4513562 L203.562858,49.0275041 C202.922124,52.8363084 202.103409,54.7585087 201.177905,54.7585087 C200.252401,54.7585087 199.220109,53.8686012 198.045431,52.1243824 C197.903045,51.9108045 197.796257,51.6616304 197.653871,51.4480526 C199.860842,49.5258523 201.889831,47.1764963 203.776435,44.4355811 L201.747446,43.0473253 C200.252401,45.3254886 198.543779,47.3188815 196.621579,49.0986967 C196.12323,47.6748446 195.696075,46.073011 195.340112,44.2220032 C195.233323,43.6524624 195.126534,43.011729 195.055341,42.3709955 L204.59515,40.8759508 L204.203591,38.4554023 L194.770571,39.950447 C194.628186,38.419806 194.521397,36.8179724 194.450204,35.1093499 L203.598454,33.827883 L203.242491,31.478527 L194.379012,32.7243976 L194.379012,25.1779815 L191.816078,25.1779815 L191.816078,33.0803606 L186.369844,33.8634793 L186.761403,36.2128352 L191.88727,35.4653129 C191.922867,37.1739354 192.029656,38.8113653 192.207637,40.3420063 L185.764706,41.3742991 L186.120669,43.7948476 L192.528004,42.7625549 C192.670389,43.6880587 192.812774,44.5779663 193.026352,45.5034701 C193.453508,47.4256705 193.987452,49.134293 194.663782,50.7005303 C192.029656,52.6583269 189.075163,54.1533716 185.800303,55.2212607 L187.295347,57.2858462 C190.321033,56.3603423 193.168737,54.9008939 195.802864,52.9430973 C196.016441,53.4058492 196.301212,53.8330049 196.621579,54.2601605 C198.15222,56.3959386 199.754053,57.4638277 201.462676,57.5350203 Z M174.017927,56.4671312 C178.503061,55.6484163 182.489847,54.5449309 185.978284,53.1922714 L185.978284,50.7361266 C182.489847,52.0887861 178.396272,53.1922714 173.69756,53.9753901 L174.017927,56.4671312 Z"/>
    </g>
    <g transform="translate(1238.018 3.918)">
      <use fill="#000" filter="url(#ee-e)" xlink:href="#ee-f"/>
      <use fill="#FFF" stroke="#9B9B9B" stroke-width="3" xlink:href="#ee-f"/>
      <g stroke="#979797" transform="translate(78.982 28.082)">
        <circle cx="14.5" cy="14.5" r="14.5" fill="#7FFF21"/>
        <path fill="#FFF" d="M5,18.6723468 C5,18.6723468 7.70342802,20.7815645 13.1102841,25 L26,11.3923805 L21.991132,6 L13.1102841,20.1305801 L7.01704021,14.0226418 C5.67234674,17.1224451 5,18.6723468 5,18.6723468 Z"/>
      </g>
      <use fill="#000" filter="url(#ee-g)" xlink:href="#ee-h"/>
      <use fill="#FFF" stroke="#9B9B9B" stroke-width="3" xlink:href="#ee-h"/>
      <path fill="#000" fill-rule="nonzero" d="M101.745903,36.4371783 C105.866129,33.4180474 108.814221,29.937167 110.661219,26.0300564 L108.42351,25 C106.860666,28.3743228 104.409842,31.3579345 101,33.9863544 L101.745903,36.4371783 Z M133.606614,38.1065801 L133.606614,35.7623138 L124.15851,35.7623138 L124.15851,31.3224153 L132.150327,31.3224153 L132.150327,29.0136682 L124.15851,29.0136682 L124.15851,25.1420767 L121.707686,25.1420767 L121.707686,29.0136682 L113.786907,29.0136682 L113.786907,31.3224153 L121.707686,31.3224153 L121.707686,35.7623138 L112.437178,35.7623138 L112.437178,38.1065801 L133.606614,38.1065801 Z M108.743183,57.6066139 L108.743183,39.6339052 C110.021874,37.9289842 111.087449,36.1175056 111.93991,34.1994695 L109.73772,33.1694131 C107.961761,37.1475621 105.155745,40.6994808 101.319673,43.7896501 L102.065576,46.240474 C103.592901,45.0683408 105.013668,43.8251693 106.292359,42.4754402 L106.292359,57.6066139 L108.743183,57.6066139 Z M125.508239,57.429018 C127.781467,57.429018 128.9536,56.2568848 128.9536,53.9481377 L128.9536,44.8197065 L133.109345,44.8197065 L133.109345,42.439921 L128.9536,42.439921 L128.9536,39.8115011 L126.396219,39.8115011 L126.396219,42.439921 L112.614774,42.439921 L112.614774,44.8197065 L126.396219,44.8197065 L126.396219,53.3087923 C126.396219,54.5164447 125.792393,55.15579 124.62026,55.15579 C123.128454,55.15579 121.53009,55.0847516 119.896208,54.9781941 L120.464515,57.429018 L125.508239,57.429018 Z M119.398939,52.9180812 L121.388014,51.4973137 C120.322438,50.0055079 118.795113,48.2295485 116.806038,46.2049548 L114.816964,47.4481264 C116.735,49.4372009 118.262325,51.2841986 119.398939,52.9180812 Z M168.770609,56.3634424 L168.770609,53.8770993 L152.57386,53.8770993 L152.57386,38.6748871 L165.751478,38.6748871 L165.751478,36.188544 L152.57386,36.188544 L152.57386,25.2131151 L149.94544,25.2131151 L149.94544,53.8770993 L137.158533,53.8770993 L137.158533,56.3634424 L168.770609,56.3634424 Z M173.743296,48.8688939 C177.153138,48.4071444 180.705056,47.5546839 184.434571,46.3470316 L184.434571,44.0382844 C181.877189,44.8907449 179.319808,45.5656095 176.762427,46.0628781 C178.822539,43.5410158 181.450959,39.2787133 184.576648,33.2759706 L182.30342,32.4235101 C181.593036,33.8442776 180.882652,35.1940068 180.243307,36.4726975 C178.644943,36.7213318 177.04658,36.9344469 175.448217,37.0765237 C177.295214,34.3060271 179.142212,30.6120316 180.953691,25.9945372 L178.502867,25.0355192 C177.082099,29.2623025 175.412697,33.0273363 173.494661,36.2951016 C173.174989,36.756851 172.819797,37.0765237 172.429086,37.2186004 L173.032912,39.5628668 C175.021986,39.3142325 177.011061,39.0655982 178.964616,38.7814447 C177.117618,42.0847291 175.519255,44.4289955 174.205045,45.7787246 C173.885372,46.0628781 173.494661,46.3115124 173.032912,46.5246275 L173.743296,48.8688939 Z M199.388149,30.8961851 L201.377223,29.5109368 C200.382686,28.2677652 198.997438,26.8114786 197.185959,25.1065576 L195.196885,26.3497291 C196.972844,27.9836117 198.393612,29.5109368 199.388149,30.8961851 Z M200.276129,57.5000564 C202.123126,57.5000564 203.543894,55.1202708 204.538431,50.4317381 L202.371761,49.0109706 C201.732415,52.8115237 200.915474,54.7295598 199.991975,54.7295598 C199.068476,54.7295598 198.03842,53.8415801 196.866287,52.1011399 C196.72421,51.8880248 196.617652,51.6393905 196.475575,51.4262754 C198.677765,49.5082392 200.702359,47.1639729 202.584876,44.4289955 L200.560282,43.0437472 C199.068476,45.3169751 197.363555,47.3060496 195.445519,49.082009 C194.94825,47.6612415 194.52202,46.0628781 194.166828,44.2158803 C194.060271,43.6475733 193.953713,43.008228 193.882675,42.3688826 L203.401817,40.8770767 L203.011106,38.461772 L193.598521,39.9535779 C193.456445,38.4262528 193.349887,36.8278894 193.278849,35.1229684 L202.40728,33.8442776 L202.052088,31.5000113 L193.20781,32.7431828 L193.20781,25.2131151 L190.650429,25.2131151 L190.650429,33.0983747 L185.215993,33.8797968 L185.606704,36.2240632 L190.721467,35.4781603 C190.756986,37.1830812 190.863544,38.8169639 191.04114,40.3442889 L184.612167,41.3743453 L184.967359,43.7896501 L191.360813,42.7595937 C191.502889,43.6830925 191.644966,44.5710722 191.858081,45.4945711 C192.284311,47.4126072 192.817099,49.1175282 193.491964,50.6803724 C190.863544,52.6339277 187.915451,54.1257336 184.647686,55.1913092 L186.139492,57.2514221 C189.158623,56.3279232 192.000158,54.8716365 194.628578,52.9180812 C194.841693,53.3798307 195.125846,53.8060609 195.445519,54.2322912 C196.972844,56.3634424 198.571208,57.429018 200.276129,57.5000564 Z M172.890835,56.4344808 C177.366253,55.6175395 181.344402,54.5164447 184.825282,53.1667155 L184.825282,50.7158916 C181.344402,52.0656207 177.259695,53.1667155 172.571162,53.9481377 L172.890835,56.4344808 Z"/>
    </g>
    <g transform="translate(990.018 3.918)">
      <use fill="#000" filter="url(#ee-i)" xlink:href="#ee-j"/>
      <use fill="#FFF" stroke="#9B9B9B" stroke-width="3" xlink:href="#ee-j"/>
      <g stroke="#979797" transform="translate(78.982 28.082)">
        <circle cx="14.5" cy="14.5" r="14.5" fill="#7FFF21"/>
        <path fill="#FFF" d="M5,18.6723468 C5,18.6723468 7.70342802,20.7815645 13.1102841,25 L26,11.3923805 L21.991132,6 L13.1102841,20.1305801 L7.01704021,14.0226418 C5.67234674,17.1224451 5,18.6723468 5,18.6723468 Z"/>
      </g>
      <use fill="#000" filter="url(#ee-k)" xlink:href="#ee-l"/>
      <use fill="#FFF" stroke="#9B9B9B" stroke-width="3" xlink:href="#ee-l"/>
      <path fill="#000" fill-rule="nonzero" d="M113.899955,56.9606759 C115.720278,56.9606759 116.665446,55.9454956 116.665446,53.9851475 L116.665446,25.3500622 L114.285023,25.3500622 L114.285023,53.3900418 C114.285023,54.3002034 113.864949,54.7902905 113.059806,54.7902905 C111.939607,54.7902905 110.749395,54.720278 109.524178,54.6152594 L110.049271,56.9606759 L113.899955,56.9606759 Z M91.5659885,32.2112806 L93.2112806,30.5309822 C91.8810444,28.9907087 90.2357522,27.415429 88.2754041,25.8751554 L86.5600995,27.5204476 C88.6954787,29.1657398 90.3757771,30.7410195 91.5659885,32.2112806 Z M96.8519272,48.419159 L96.8519272,29.0257149 L104.098214,29.0257149 L104.098214,48.2091217 L106.338612,48.2091217 L106.338612,26.8553295 L94.6115293,26.8553295 L94.6115293,48.419159 L96.8519272,48.419159 Z M111.309495,50.0644512 L111.309495,28.2205719 L109.104103,28.2205719 L109.104103,50.0644512 L111.309495,50.0644512 Z M94.0164236,57.2757318 C96.6068837,56.015508 98.4972194,54.2651972 99.6524245,52.0948118 C100.842636,49.714389 101.472748,46.5288233 101.54276,42.5381146 L101.54276,31.4411439 L99.4423872,31.4411439 L99.4423872,42.5381146 C99.3723748,45.7936927 98.8472815,48.419159 97.9371199,50.4495196 C96.9569458,52.4098677 95.206635,53.9851475 92.6861874,55.1753588 L94.0164236,57.2757318 Z M90.8658641,41.1378659 L92.5111563,39.4925737 C91.2159263,37.8122753 89.6056403,36.1669831 87.7153046,34.4866847 L86,36.0969707 C88.0653668,37.8822878 89.6756528,39.5625862 90.8658641,41.1378659 Z M88.4854414,56.820651 C90.0957274,53.0399796 91.6009947,49.0142647 92.9312309,44.7435062 L90.7958517,43.903357 C89.4656155,47.9640782 87.9253419,51.9547869 86.1750311,55.840477 L88.4854414,56.820651 Z M106.268599,57.2407256 L107.948898,55.5604272 C106.513643,53.6700915 104.728326,51.7447496 102.592947,49.8544139 L101.052673,51.324675 C103.293071,53.425048 105.008376,55.3853961 106.268599,57.2407256 Z M150.02637,30.6360009 L151.776681,29.4107833 C150.936532,28.1505595 149.781327,26.6802984 148.27606,25 L146.490743,26.0851927 C147.961004,27.7654911 149.151215,29.2707584 150.02637,30.6360009 Z M149.221227,56.7156324 C150.831513,56.7156324 152.196756,54.1951848 153.351961,49.1542896 L151.356607,47.5440036 C150.656482,51.7097434 149.921352,53.8451226 149.221227,53.9851475 C148.171041,53.8451226 147.260879,51.814762 146.490743,47.8240533 C145.930643,44.5334689 145.545575,39.9126483 145.370544,33.8915791 L152.301775,33.8915791 L152.301775,31.4411439 L145.335537,31.4411439 C145.265525,29.4457895 145.265525,27.3104103 145.265525,25.0350062 L142.81509,25.0350062 C142.81509,27.2754041 142.81509,29.4107833 142.885102,31.4411439 L131.858144,31.4411439 L131.858144,33.8915791 L142.955115,33.8915791 C143.09514,38.4773934 143.340183,42.3280773 143.725251,45.4086244 C144.215338,49.0492709 144.985475,51.8847745 146.035662,53.9851475 C146.945823,55.8054707 148.031016,56.7156324 149.221227,56.7156324 Z M129.092653,32.6313553 L130.807957,30.8810444 C129.267684,29.0607211 127.412354,27.2754041 125.171957,25.490087 L123.421646,27.2053917 C125.802068,29.0957274 127.692404,30.9160506 129.092653,32.6313553 Z M126.082118,55.9805018 C128.252504,54.3702159 130.282864,52.5148864 132.208206,50.4145134 L131.543088,47.7540409 C130.422889,48.9792585 129.372703,50.0994574 128.322516,51.1146377 L128.322516,35.8519272 L120.971211,35.8519272 L120.971211,38.2673561 L125.872081,38.2673561 L125.872081,52.3048491 C125.872081,52.8299423 125.592031,53.3200293 125.101944,53.7401039 L126.082118,55.9805018 Z M133.153374,54.6152594 C136.653996,54.0201537 139.94458,53.2850231 142.990121,52.4098677 L142.990121,50.0644512 C141.51986,50.4845258 139.979586,50.8695942 138.439313,51.2196563 L138.439313,41.7329716 L141.729897,41.7329716 L141.729897,39.3875551 L132.663287,39.3875551 L132.663287,41.7329716 L135.953871,41.7329716 L135.953871,51.7097434 C134.833672,51.9197807 133.678467,52.0948118 132.523262,52.2348366 L133.153374,54.6152594 Z M163.223714,32.911405 L165.009031,31.1610941 C163.363739,29.3407709 161.333378,27.5204476 158.917949,25.7001243 L157.202645,27.3454165 C159.758099,29.3057647 161.753453,31.1610941 163.223714,32.911405 Z M169.804883,51.9897931 L169.804883,45.8637052 L175.650921,45.8637052 L175.650921,51.8847745 L177.996338,51.8847745 L177.996338,45.8637052 L183.877382,45.8637052 L183.877382,48.4891714 C183.877382,49.2593082 183.457307,49.6793828 182.617158,49.6793828 L179.851667,49.5743642 L180.411767,51.7097434 L183.317283,51.7097434 C185.277631,51.7097434 186.257805,50.7995817 186.257805,49.0142647 L186.257805,33.3664858 L179.326574,33.3664858 L178.766474,32.911405 C181.21691,31.5811687 183.492314,30.005889 185.592687,28.1855657 L185.592687,26.3652425 L166.654323,26.3652425 L166.654323,28.5006217 L182.197084,28.5006217 C180.65681,29.690833 178.976512,30.7410195 177.156188,31.6861874 C175.965977,30.811032 174.600735,29.9358766 173.130473,29.0607211 L171.5902,30.5659885 C173.305505,31.4761501 174.845778,32.421318 176.176014,33.3664858 L167.42446,33.3664858 L167.42446,51.9897931 L169.804883,51.9897931 Z M183.877382,38.6174183 L177.996338,38.6174183 L177.996338,35.4668588 L183.877382,35.4668588 L183.877382,38.6174183 Z M175.650921,38.6174183 L169.804883,38.6174183 L169.804883,35.4668588 L175.650921,35.4668588 L175.650921,38.6174183 Z M158.322844,57.3107381 C160.248186,54.0901661 161.648434,52.4798801 162.488584,52.4798801 C162.908658,52.4798801 163.363739,52.7599299 163.853826,53.3550356 C164.939019,54.6152594 166.199243,55.4904148 167.599491,55.9104894 C168.99974,56.2955578 170.855069,56.5055951 173.130473,56.5406013 C175.370871,56.5756075 177.471244,56.6106137 179.396586,56.6106137 L187.342997,56.6106137 L187.938103,54.0901661 C187.027942,54.1601786 185.732712,54.1951848 184.052413,54.230191 C182.337108,54.2651972 180.65681,54.3002034 179.046524,54.3002034 C176.281033,54.3002034 173.970623,54.2651972 172.115293,54.230191 C170.01492,54.1601786 168.43964,53.8801288 167.319442,53.3900418 C166.339267,52.934961 165.429106,52.1998304 164.588957,51.1846501 C164.273901,50.834588 163.993851,50.5895444 163.713801,50.3795071 L163.713801,37.2871821 L156.397502,37.2871821 L156.397502,39.5975924 L161.368385,39.5975924 L161.368385,50.2394823 C159.93313,50.8695942 158.287838,52.6549112 156.432508,55.5954334 L158.322844,57.3107381 Z M175.650921,43.7983384 L169.804883,43.7983384 L169.804883,40.7177913 L175.650921,40.7177913 L175.650921,43.7983384 Z M183.877382,43.7983384 L177.996338,43.7983384 L177.996338,40.7177913 L183.877382,40.7177913 L183.877382,43.7983384 Z M214.052741,51.9197807 C216.153114,51.9197807 217.238307,50.8695942 217.238307,48.8392336 L217.238307,33.3664858 L222.419227,33.3664858 L222.419227,30.8810444 L217.238307,30.8810444 L217.238307,25.2100373 L214.682853,25.2100373 L214.682853,30.8810444 L201.450503,30.8810444 L201.450503,33.3664858 L214.682853,33.3664858 L214.682853,48.2441279 C214.682853,49.1892958 214.15776,49.6793828 213.177585,49.6793828 C211.707324,49.6793828 210.132045,49.6093704 208.521759,49.5043517 L209.081858,51.9197807 L214.052741,51.9197807 Z M197.984887,33.0164236 L199.805211,31.1610941 C198.194925,29.3407709 196.19957,27.4854414 193.819148,25.6301119 L192.068837,27.2754041 C194.589284,29.3057647 196.549632,31.2311066 197.984887,33.0164236 Z M208.381734,44.7085 L210.412094,43.3082514 C209.221883,41.3479032 207.506578,39.0724991 205.26618,36.4820391 L203.305832,37.7422629 C205.441212,40.2977167 207.12151,42.608127 208.381734,44.7085 Z M193.294054,57.3807505 C195.254402,54.0901661 196.689657,52.4798801 197.529807,52.4798801 C197.984887,52.4798801 198.474974,52.7599299 198.965061,53.3550356 C200.08526,54.6152594 201.38049,55.4904148 202.850752,55.9104894 C204.286006,56.2955578 206.211348,56.5055951 208.591771,56.5406013 C210.937188,56.5756075 213.107573,56.6106137 215.102927,56.6106137 L222.489239,56.6106137 L223.119351,54.0551599 C222.279202,54.1251723 221.053984,54.1601786 219.478704,54.1951848 C217.868418,54.1951848 216.328145,54.230191 214.787871,54.230191 C211.917362,54.230191 209.501933,54.1951848 207.576591,54.1601786 C205.406205,54.0901661 203.725907,53.8451226 202.605708,53.3900418 C201.590528,52.8999547 200.64536,52.1648242 199.735198,51.1846501 C199.420142,50.834588 199.105086,50.5895444 198.825037,50.3795071 L198.825037,37.2521759 L191.368712,37.2521759 L191.368712,39.6325986 L196.409608,39.6325986 L196.409608,50.2394823 C194.939347,50.8695942 193.294054,52.6899174 191.403719,55.7004521 L193.294054,57.3807505 Z"/>
    </g>
    <g transform="translate(737.018 3.918)">
      <use fill="#000" filter="url(#ee-m)" xlink:href="#ee-n"/>
      <use fill="#FFF" stroke="#9B9B9B" stroke-width="3" xlink:href="#ee-n"/>
      <g stroke="#979797" transform="translate(78.982 28.082)">
        <circle cx="14.5" cy="14.5" r="14.5" fill="#7FFF21"/>
        <path fill="#FFF" d="M5,18.6723468 C5,18.6723468 7.70342802,20.7815645 13.1102841,25 L26,11.3923805 L21.991132,6 L13.1102841,20.1305801 L7.01704021,14.0226418 C5.67234674,17.1224451 5,18.6723468 5,18.6723468 Z"/>
      </g>
      <use fill="#000" filter="url(#ee-o)" xlink:href="#ee-p"/>
      <use fill="#7ED321" stroke="#9B9B9B" stroke-width="3" xlink:href="#ee-p"/>
      <path fill="#000" fill-rule="nonzero" d="M141.254301,57.366596 C143.097744,57.366596 144.054916,56.3385223 144.054916,54.3532765 L144.054916,25.3545082 L141.64426,25.3545082 L141.64426,53.7506126 C141.64426,54.6723339 141.21885,55.1686453 140.403482,55.1686453 C139.269055,55.1686453 138.063728,55.0977437 136.822949,54.9913912 L137.354711,57.366596 L141.254301,57.366596 Z M118.63668,32.3028683 L120.302868,30.6012291 C118.955737,29.0413931 117.289549,27.4461064 115.304303,25.8862704 L113.567213,27.5524588 C115.729713,29.2186472 117.431352,30.813934 118.63668,32.3028683 Z M123.989753,48.7165966 L123.989753,29.076844 L131.328072,29.076844 L131.328072,48.5038917 L133.596925,48.5038917 L133.596925,26.8788933 L121.720901,26.8788933 L121.720901,48.7165966 L123.989753,48.7165966 Z M138.630941,50.382785 L138.630941,28.2614752 L136.397539,28.2614752 L136.397539,50.382785 L138.630941,50.382785 Z M121.118237,57.6856533 C123.741598,56.4094239 125.655942,54.636883 126.825819,52.4389324 C128.031146,50.0282768 128.669261,46.8022525 128.740163,42.7608593 L128.740163,31.5229503 L126.613114,31.5229503 L126.613114,42.7608593 C126.542212,46.0577853 126.01045,48.7165966 125.088729,50.772744 C124.096106,52.7579897 122.323565,54.3532765 119.771106,55.5586043 L121.118237,57.6856533 Z M117.927664,41.3428267 L119.593852,39.6766383 C118.282172,37.974999 116.651434,36.3088106 114.73709,34.6071714 L113,36.237909 C115.091598,38.0459007 116.722336,39.7475399 117.927664,41.3428267 Z M115.517008,57.2247927 C117.147746,53.3961044 118.672131,49.3192605 120.019262,44.9942608 L117.856762,44.1434412 C116.509631,48.255736 114.949795,52.2971291 113.177254,56.2321698 L115.517008,57.2247927 Z M133.526023,57.6502025 L135.227662,55.9485633 C133.774179,54.0342192 131.966187,52.0844242 129.803687,50.1700801 L128.243851,51.6590144 C130.512704,53.7860634 132.249794,55.7713092 133.526023,57.6502025 Z M177.839544,30.7075815 L179.612085,29.4668029 C178.761266,28.1905735 177.591389,26.7016392 176.067004,25 L174.259012,26.0989753 C175.747946,27.8006145 176.953274,29.3249997 177.839544,30.7075815 Z M177.024176,57.1184402 C178.654913,57.1184402 180.037495,54.5659814 181.207372,49.4610638 L179.186675,47.8303262 C178.477659,52.0489734 177.733192,54.2114732 177.024176,54.3532765 C175.960651,54.2114732 175.03893,52.1553258 174.259012,48.1139327 C173.691799,44.7815559 173.30184,40.1020481 173.124586,34.0045075 L180.143847,34.0045075 L180.143847,31.5229503 L173.089135,31.5229503 C173.018233,29.5022538 173.018233,27.3397539 173.018233,25.0354508 L170.536676,25.0354508 C170.536676,27.3043031 170.536676,29.4668029 170.607578,31.5229503 L159.44057,31.5229503 L159.44057,34.0045075 L170.678479,34.0045075 C170.820283,38.6485646 171.068438,42.5481544 171.458397,45.6678263 C171.954709,49.3547113 172.734627,52.2262275 173.798151,54.3532765 C174.719872,56.196719 175.818848,57.1184402 177.024176,57.1184402 Z M156.639956,32.7282781 L158.377046,30.9557373 C156.81721,29.1122948 154.938317,27.3043031 152.669464,25.4963114 L150.896923,27.2334015 C153.307579,29.1477456 155.221923,30.9911881 156.639956,32.7282781 Z M153.591186,56.3739731 C155.789136,54.7432355 157.845284,52.8643422 159.795078,50.7372932 L159.121513,48.0430311 C157.987087,49.2838097 156.923562,50.4182358 155.860038,51.4463095 L155.860038,35.9897533 L148.415366,35.9897533 L148.415366,38.4358597 L153.378481,38.4358597 L153.378481,52.6516373 C153.378481,53.1833995 153.094874,53.679711 152.598563,54.1051208 L153.591186,56.3739731 Z M160.752251,54.9913912 C164.297332,54.3887273 167.629709,53.6442602 170.71393,52.7579897 L170.71393,50.382785 C169.224996,50.8081948 167.66516,51.1981538 166.105324,51.552662 L166.105324,41.9454905 L169.437701,41.9454905 L169.437701,39.5702858 L160.255939,39.5702858 L160.255939,41.9454905 L163.588316,41.9454905 L163.588316,52.0489734 C162.45389,52.2616783 161.284013,52.4389324 160.114136,52.5807357 L160.752251,54.9913912 Z M201.414338,57.8983582 L201.414338,45.8096296 L211.588722,45.8096296 L211.588722,48.0430311 L214.141181,48.0430311 L214.141181,31.3811471 L201.414338,31.3811471 L201.414338,25 L198.790977,25 L198.790977,31.3811471 L186.099585,31.3811471 L186.099585,48.0430311 L188.652044,48.0430311 L188.652044,45.8096296 L198.790977,45.8096296 L198.790977,57.8983582 L201.414338,57.8983582 Z M198.790977,43.3280724 L188.652044,43.3280724 L188.652044,33.8627043 L198.790977,33.8627043 L198.790977,43.3280724 Z M211.588722,43.3280724 L201.414338,43.3280724 L201.414338,33.8627043 L211.588722,33.8627043 L211.588722,43.3280724 Z"/>
    </g>
    <g transform="translate(498.018 3.918)">
      <use fill="#000" filter="url(#ee-q)" xlink:href="#ee-r"/>
      <use fill="#FFF" stroke="#9B9B9B" stroke-width="3" xlink:href="#ee-r"/>
      <g stroke="#979797" transform="translate(78.982 28.082)">
        <circle cx="14.5" cy="14.5" r="14.5" fill="#7FFF21"/>
        <path fill="#FFF" d="M5,18.6723468 C5,18.6723468 7.70342802,20.7815645 13.1102841,25 L26,11.3923805 L21.991132,6 L13.1102841,20.1305801 L7.01704021,14.0226418 C5.67234674,17.1224451 5,18.6723468 5,18.6723468 Z"/>
      </g>
      <use fill="#000" filter="url(#ee-s)" xlink:href="#ee-t"/>
      <use fill="#FFF" stroke="#9B9B9B" stroke-width="3" xlink:href="#ee-t"/>
      <g stroke="#979797" transform="translate(78.982 28.082)">
        <circle cx="14.5" cy="14.5" r="14.5" fill="#7FFF21"/>
        <path fill="#FFF" d="M5,18.6723468 C5,18.6723468 7.70342802,20.7815645 13.1102841,25 L26,11.3923805 L21.991132,6 L13.1102841,20.1305801 L7.01704021,14.0226418 C5.67234674,17.1224451 5,18.6723468 5,18.6723468 Z"/>
      </g>
      <path fill="#000" fill-rule="nonzero" d="M145.031442,56.4050245 C146.52692,56.3338113 147.701938,55.9421387 148.485283,55.1944 C149.339841,54.2686283 149.945154,51.6337396 150.30122,47.2185207 L147.808758,46.4351755 C147.595118,50.3519019 147.132232,52.6307245 146.4201,53.2716434 C145.886001,53.6989226 145.173869,53.9125622 144.31931,53.9125622 L126.444795,53.9125622 C124.806892,53.9125622 123.98794,53.0936104 123.98794,51.5269198 L123.98794,41.0229717 L146.348887,41.0229717 L146.348887,26.7803302 L120,26.7803302 L120,29.2727925 L143.749605,29.2727925 L143.749605,38.566116 L123.98794,38.566116 L123.98794,33.2963387 L121.424264,33.2963387 L121.424264,51.9898056 C121.424264,54.9095472 122.848528,56.4050245 125.732663,56.4050245 L145.031442,56.4050245 Z M158.099066,57.2239764 C160.128642,57.2239764 161.161234,56.1913849 161.161234,54.1974151 L161.161234,43.693467 C162.193825,43.1949745 163.226417,42.6964821 164.223402,42.162383 L164.223402,39.5631009 C163.226417,40.1328066 162.193825,40.631299 161.161234,41.1297915 L161.161234,34.1865038 L164.757501,34.1865038 L164.757501,31.7296481 L161.161234,31.7296481 L161.161234,25 L158.526345,25 L158.526345,31.7296481 L154.217946,31.7296481 L154.217946,34.1865038 L158.526345,34.1865038 L158.526345,42.2335962 C156.959655,42.8389085 155.392964,43.3374009 153.790667,43.7290736 L154.395979,46.292749 C155.784637,45.8654698 157.173294,45.3669773 158.526345,44.8328783 L158.526345,53.5208896 C158.526345,54.4110547 158.063459,54.8739405 157.208901,54.8739405 C156.283129,54.8739405 155.357358,54.8027273 154.360373,54.7315141 L154.894472,57.2239764 L158.099066,57.2239764 Z M183.059295,38.4949028 L183.059295,26.1394113 L167.534816,26.1394113 L167.534816,38.4949028 L183.059295,38.4949028 Z M180.566833,31.3379755 L170.027278,31.3379755 L170.027278,28.2402009 L180.566833,28.2402009 L180.566833,31.3379755 Z M180.566833,36.3941132 L170.027278,36.3941132 L170.027278,33.3319453 L180.566833,33.3319453 L180.566833,36.3941132 Z M164.899927,57.4732226 C166.431011,55.6216792 167.606029,53.5921028 168.460588,51.3844934 C169.528786,53.3784632 170.775017,54.7315141 172.128068,55.4436462 C173.837185,56.2982047 177.041779,56.7610905 181.741851,56.7966972 C182.881262,56.7966972 184.198707,56.8323038 185.622971,56.8323038 L186.335103,54.3398415 C185.017658,54.4466613 183.415361,54.5178745 181.563818,54.5178745 C179.605455,54.5178745 177.931944,54.4110547 176.50768,54.1974151 L176.50768,49.6041632 L183.94946,49.6041632 L183.94946,47.2897339 L176.50768,47.2897339 L176.50768,43.2661877 L185.409331,43.2661877 L185.409331,40.9873651 L165.042354,40.9873651 L165.042354,43.2661877 L174.050824,43.2661877 L174.050824,53.663316 C173.730365,53.5564962 173.445512,53.4496764 173.196266,53.3428566 C171.700789,52.6663311 170.383344,51.1352472 169.243933,48.7496047 C169.528786,47.5389802 169.706819,46.3283556 169.778032,45.0465179 L167.499209,44.7972717 C167.214357,48.8564245 165.718879,52.5595113 163.012777,55.8353189 L164.899927,57.4732226 Z M217.740127,57.259583 C219.591671,57.259583 220.553049,56.2269915 220.553049,54.2330217 L220.553049,25.1068198 L218.1318,25.1068198 L218.1318,53.6277094 C218.1318,54.5534811 217.704521,55.0519736 216.885569,55.0519736 C215.746157,55.0519736 214.535533,54.9807604 213.289302,54.8739405 L213.823401,57.259583 L217.740127,57.259583 Z M195.023114,32.0857141 L196.696624,30.3765972 C195.343574,28.8099066 193.670063,27.2076094 191.676093,25.6409189 L189.93137,27.3144292 C192.103373,28.9879396 193.81249,30.5902368 195.023114,32.0857141 Z M200.399711,48.5715717 L200.399711,28.8455132 L207.770278,28.8455132 L207.770278,48.3579321 L210.049101,48.3579321 L210.049101,26.6379038 L198.120889,26.6379038 L198.120889,48.5715717 L200.399711,48.5715717 Z M215.105239,50.2450821 L215.105239,28.0265613 L212.862023,28.0265613 L212.862023,50.2450821 L215.105239,50.2450821 Z M197.515576,57.5800424 C200.150465,56.2982047 202.073222,54.5178745 203.24824,52.3102651 C204.458864,49.889016 205.099783,46.6488151 205.170996,42.5896623 L205.170996,31.3023689 L203.0346,31.3023689 L203.0346,42.5896623 C202.963387,45.9010764 202.429288,48.5715717 201.503516,50.6367547 C200.506531,52.6307245 198.726201,54.2330217 196.162525,55.4436462 L197.515576,57.5800424 Z M194.310982,41.1653981 L195.984492,39.4918877 C194.667048,37.7827707 193.029144,36.1092604 191.106388,34.4001434 L189.361664,36.0380472 C191.462454,37.853984 193.100358,39.5631009 194.310982,41.1653981 Z M191.889733,57.1171566 C193.527637,53.2716434 195.058721,49.1768839 196.411772,44.8328783 L194.239769,43.9783198 C192.886718,48.1086858 191.320027,52.1678387 189.539697,56.1201717 L191.889733,57.1171566 Z M209.977888,57.5444358 L211.687005,55.8353189 C210.227134,53.9125622 208.411197,51.954199 206.239194,50.0314424 L204.672504,51.5269198 C206.951326,53.663316 208.69605,55.6572858 209.977888,57.5444358 Z"/>
    </g>
    <g transform="translate(254.018 3.918)">
      <use fill="#000" filter="url(#ee-u)" xlink:href="#ee-v"/>
      <use fill="#FFF" stroke="#9B9B9B" stroke-width="3" xlink:href="#ee-v"/>
      <g stroke="#979797" transform="translate(78.982 28.082)">
        <circle cx="14.5" cy="14.5" r="14.5" fill="#7FFF21"/>
        <path fill="#FFF" d="M5,18.6723468 C5,18.6723468 7.70342802,20.7815645 13.1102841,25 L26,11.3923805 L21.991132,6 L13.1102841,20.1305801 L7.01704021,14.0226418 C5.67234674,17.1224451 5,18.6723468 5,18.6723468 Z"/>
      </g>
      <use fill="#000" filter="url(#ee-w)" xlink:href="#ee-x"/>
      <use fill="#FFF" stroke="#9B9B9B" stroke-width="3" xlink:href="#ee-x"/>
      <g stroke="#979797" transform="translate(78.982 28.082)">
        <circle cx="14.5" cy="14.5" r="14.5" fill="#7FFF21"/>
        <path fill="#FFF" d="M5,18.6723468 C5,18.6723468 7.70342802,20.7815645 13.1102841,25 L26,11.3923805 L21.991132,6 L13.1102841,20.1305801 L7.01704021,14.0226418 C5.67234674,17.1224451 5,18.6723468 5,18.6723468 Z"/>
      </g>
      <path fill="#000" fill-rule="nonzero" d="M121.019443,57.6653801 C124.13718,56.035654 126.369196,53.7327801 127.715492,50.7567585 C128.778357,48.3475981 129.451504,45.3361477 129.770364,41.6869783 L140.009295,41.6869783 L140.009295,57.3819495 L142.5956,57.3819495 L142.5956,41.6869783 L150.354513,41.6869783 L150.354513,39.2423892 L142.5956,39.2423892 L142.5956,29.8537495 L148.512214,29.8537495 L148.512214,27.3737315 L120.913157,27.3737315 L120.913157,29.8537495 L127.361204,29.8537495 L127.361204,38.0023802 C127.361204,38.3566684 127.325775,38.7818144 127.325775,39.2423892 L119,39.2423892 L119,41.6869783 L127.184059,41.6869783 C126.900629,44.5212846 126.404625,46.930445 125.66062,48.9853171 C124.526897,51.6779081 122.507454,53.8390666 119.637719,55.4687927 L121.019443,57.6653801 Z M140.009295,39.2423892 L129.947508,39.2423892 C129.947508,38.852672 129.982937,38.4275261 129.982937,38.0023802 L129.982937,29.8537495 L140.009295,29.8537495 L140.009295,39.2423892 Z M162.400315,57.8425243 C166.687204,56.1773693 170.300944,54.3350702 173.206108,52.2801981 C176.18213,54.2287837 179.937585,56.035654 184.472476,57.7008089 L185.783342,55.3270774 C181.673598,53.9099243 178.166144,52.3510558 175.296409,50.650472 C178.201573,48.170454 180.11473,45.4070054 181.071308,42.3601261 L181.071308,40.1635387 L166.580917,40.1635387 C167.076921,38.8881009 167.502067,37.5418054 167.927213,36.1246522 L185.181052,36.1246522 L185.181052,33.680063 L168.60036,33.680063 C169.238079,31.0583297 169.80494,28.2948811 170.265515,25.3188595 L167.679211,25 C167.254065,28.0468793 166.687204,30.9166144 165.978627,33.680063 L159.778582,33.680063 L161.798025,26.7005838 L159.282578,26.2754378 L156.483701,36.1246522 L165.27005,36.1246522 C162.790032,44.025281 158.999148,50.2253261 153.826539,54.7602162 L155.137405,57.0985188 C159.176292,53.8036378 162.506602,49.3750342 165.092906,43.7772792 C166.262058,46.2572973 168.210643,48.5601711 170.974092,50.6859008 C168.31693,52.4219135 165.022049,54.0162107 161.05402,55.4687927 L162.400315,57.8425243 Z M180.752449,32.9360576 L182.559319,31.1291874 C180.858735,29.1806018 178.768434,27.2320162 176.217558,25.2834306 L174.516975,26.9485856 C177.174137,29.0743153 179.264438,31.0583297 180.752449,32.9360576 Z M173.064393,49.19789 C170.230086,47.143018 168.210643,44.9110018 167.006063,42.5018414 L178.485003,42.5018414 C177.492996,44.9110018 175.686126,47.143018 173.064393,49.19789 Z M206.828066,57.9842396 L206.828066,45.903009 L216.99614,45.903009 L216.99614,48.1350252 L219.547016,48.1350252 L219.547016,31.4834757 L206.828066,31.4834757 L206.828066,25.1062865 L204.206333,25.1062865 L204.206333,31.4834757 L191.522812,31.4834757 L191.522812,48.1350252 L194.073688,48.1350252 L194.073688,45.903009 L204.206333,45.903009 L204.206333,57.9842396 L206.828066,57.9842396 Z M204.206333,43.422991 L194.073688,43.422991 L194.073688,33.9634937 L204.206333,33.9634937 L204.206333,43.422991 Z M216.99614,43.422991 L206.828066,43.422991 L206.828066,33.9634937 L216.99614,33.9634937 L216.99614,43.422991 Z"/>
    </g>
    <g transform="translate(6.018 3.918)">
      <use fill="#000" filter="url(#ee-y)" xlink:href="#ee-z"/>
      <use fill="#FFF" stroke="#9B9B9B" stroke-width="3" xlink:href="#ee-z"/>
      <g stroke="#979797" transform="translate(78.982 28.082)">
        <circle cx="14.5" cy="14.5" r="14.5" fill="#7FFF21"/>
        <path fill="#FFF" d="M5,18.6723468 C5,18.6723468 7.70342802,20.7815645 13.1102841,25 L26,11.3923805 L21.991132,6 L13.1102841,20.1305801 L7.01704021,14.0226418 C5.67234674,17.1224451 5,18.6723468 5,18.6723468 Z"/>
      </g>
      <path fill="#000" fill-rule="nonzero" d="M119.744028,36.4438603 C123.853897,33.4323181 126.79458,29.9601871 128.636935,26.0628972 L126.404851,25.0354299 C124.845935,28.4012712 122.401271,31.3773835 119,33.9991967 L119.744028,36.4438603 Z M151.524656,38.109066 L151.524656,35.7706921 L142.1003,35.7706921 L142.1003,31.3419535 L150.072029,31.3419535 L150.072029,29.0390095 L142.1003,29.0390095 L142.1003,25.1771495 L139.655636,25.1771495 L139.655636,29.0390095 L131.754767,29.0390095 L131.754767,31.3419535 L139.655636,31.3419535 L139.655636,35.7706921 L130.40843,35.7706921 L130.40843,38.109066 L151.524656,38.109066 Z M126.72372,57.5600855 L126.72372,39.632552 C127.999197,37.9319165 129.062094,36.1249911 129.912412,34.2117761 L127.715757,33.1843088 C125.944262,37.1524585 123.145299,40.6954493 119.318869,43.7778513 L120.062897,46.2225149 C121.586383,45.053328 123.00358,43.8132812 124.279056,42.4669447 L124.279056,57.5600855 L126.72372,57.5600855 Z M143.446637,57.382936 C145.714151,57.382936 146.883338,56.213749 146.883338,53.910805 L146.883338,44.8053186 L151.028637,44.8053186 L151.028637,42.4315148 L146.883338,42.4315148 L146.883338,39.8097016 L144.332384,39.8097016 L144.332384,42.4315148 L130.58558,42.4315148 L130.58558,44.8053186 L144.332384,44.8053186 L144.332384,53.2730667 C144.332384,54.4776835 143.730076,55.1154219 142.560889,55.1154219 C141.072833,55.1154219 139.478487,55.0445621 137.848711,54.9382723 L138.41559,57.382936 L143.446637,57.382936 Z M137.352692,52.8833377 L139.336767,51.4661413 C138.27387,49.9780852 136.750384,48.2065898 134.766309,46.187085 L132.782234,47.4271318 C134.695449,49.4112067 136.218935,51.2535619 137.352692,52.8833377 Z M157.158011,57.6663753 C160.275843,56.0365995 162.507927,53.7336555 163.854264,50.7575432 C164.917161,48.3483094 165.590329,45.3367672 165.909198,41.6874867 L176.148442,41.6874867 L176.148442,57.382936 L178.734825,57.382936 L178.734825,41.6874867 L186.493975,41.6874867 L186.493975,39.2428231 L178.734825,39.2428231 L178.734825,29.8538974 L184.65162,29.8538974 L184.65162,27.3738038 L157.051721,27.3738038 L157.051721,29.8538974 L163.499965,29.8538974 L163.499965,38.0027763 C163.499965,38.3570753 163.464535,38.7822342 163.464535,39.2428231 L155.138506,39.2428231 L155.138506,41.6874867 L163.322815,41.6874867 C163.039376,44.5218794 162.543357,46.9311131 161.799329,48.9860478 C160.665572,51.6787208 158.646067,53.8399452 155.776245,55.469721 L157.158011,57.6663753 Z M176.148442,39.2428231 L166.086348,39.2428231 C166.086348,38.8530941 166.121778,38.4279352 166.121778,38.0027763 L166.121778,29.8538974 L176.148442,29.8538974 L176.148442,39.2428231 Z M198.540144,57.8435248 C202.827163,56.1783191 206.441013,54.3359639 209.346266,52.2810292 C212.322378,54.2296742 216.077948,56.0365995 220.612976,57.7018052 L221.923883,55.3280013 C217.814014,53.910805 214.306453,52.351889 211.43663,50.6512535 C214.341883,48.1711599 216.255098,45.4076271 217.211705,42.360655 L217.211705,40.1640007 L202.720873,40.1640007 C203.216892,38.888524 203.64205,37.5421875 204.067209,36.1249911 L221.321575,36.1249911 L221.321575,33.6803275 L204.740378,33.6803275 C205.378116,31.0585143 205.944994,28.2949815 206.405583,25.3188692 L203.8192,25 C203.394041,28.0469721 202.827163,30.9167947 202.118564,33.6803275 L195.91833,33.6803275 L197.937835,26.7006356 L195.422312,26.2754767 L192.623349,36.1249911 L201.409966,36.1249911 C198.929873,44.0258606 195.138872,50.2260946 189.966106,54.7611228 L191.277013,57.0994967 C195.316022,53.8045153 198.646433,49.3757768 201.232817,43.7778513 C202.402004,46.2579449 204.350649,48.5608889 207.114181,50.6866834 C204.456938,52.4227489 201.161957,54.0170947 197.193807,55.469721 L198.540144,57.8435248 Z M216.892836,32.9362994 L218.699761,31.1293741 C216.999126,29.1807292 214.908761,27.2320842 212.357808,25.2834393 L210.657172,26.9486449 C213.314415,29.0744394 215.40478,31.0585143 216.892836,32.9362994 Z M209.204546,49.1986272 C206.370153,47.1436926 204.350649,44.9116083 203.146032,42.5023746 L214.625322,42.5023746 C213.633285,44.9116083 211.826359,47.1436926 209.204546,49.1986272 Z"/>
    </g>
  </g>
</svg>
