<svg xmlns="http://www.w3.org/2000/svg" width="61" height="58" viewBox="0 0 61 58">
  <path fill="#FFF" d="M47.22,57.256 C48.828,57.256 51.216,57.184 54.384,57.04 C57.552,56.896 59.34,56.74 59.748,56.572 C60.156,56.404 60.36,56.2 60.36,55.96 C60.36,55.576 59.808,55.192 58.704,54.808 C49.296,51.544 42.504,48.148 38.328,44.62 C34.152,41.092 29.832,35.872 25.368,28.96 C25.704,26.08 26.064,22.132 26.448,17.116 C26.832,12.1 27.384,8.704 28.104,6.928 C28.344,6.208 28.464,5.632 28.464,5.2 C28.464,4.144 27.516,3.124 25.62,2.14 C23.724,1.156 22.32,0.664 21.408,0.664 C20.496,0.664 20.04,1.024 20.04,1.744 C20.04,2.464 20.424,3.352 21.192,4.408 C21.96,5.464 22.344,8.992 22.344,14.992 C22.344,20.992 21.924,25.972 21.084,29.932 C20.244,33.892 19.056,37.468 17.52,40.66 C15.984,43.852 13.932,46.66 11.364,49.084 C8.796,51.508 5.64,53.44 1.896,54.88 C0.936,55.264 0.456,55.636 0.456,55.996 C0.456,56.356 0.84,56.536 1.608,56.536 C3.048,56.536 5.496,55.816 8.952,54.376 C12.408,52.936 15.564,50.44 18.42,46.888 C21.276,43.336 23.4,38.368 24.792,31.984 C27.288,36.448 30.6,41.548 34.728,47.284 C38.856,53.02 41.568,56.116 42.864,56.572 C44.16,57.028 45.612,57.256 47.22,57.256 Z M29.724,25.72 C29.958,25.72 30.4455,25.5751429 31.1865,25.2854286 L31.5465,25.1414286 C32.3655,24.8071429 33.438,24.328 34.764,23.704 C37.62,22.36 39.756,21.256 41.172,20.392 C42.588,19.528 43.74,18.928 44.628,18.592 C45.516,18.256 45.96,17.848 45.96,17.368 C45.96,16.648 45.204,15.628 43.692,14.308 C42.18,12.988 41.112,12.328 40.488,12.328 C39.864,12.328 39.48,12.76 39.336,13.624 C39.048,16.168 35.832,19.768 29.688,24.424 C29.208,24.76 28.968,25.06 28.968,25.324 C28.968,25.588 29.22,25.72 29.724,25.72 Z M13.992,31.408 C14.568,31.408 15.024,31.12 15.36,30.544 C15.696,29.968 15.864,29.2 15.864,28.24 C15.864,26.08 14.736,24.292 12.48,22.876 C10.224,21.46 8.76,20.752 8.088,20.752 C7.416,20.752 7.08,20.968 7.08,21.4 C7.08,22.12 7.956,23.968 9.708,26.944 C11.46,29.92 12.888,31.408 13.992,31.408 Z"/>
</svg>
